<svg width="105" height="103" viewBox="0 0 105 103" fill="none" xmlns="http://www.w3.org/2000/svg">
<path d="M62.3437 20.9219H57.4219V16.0938C57.4219 15.6669 57.249 15.2576 56.9413 14.9558C56.6337 14.6539 56.2164 14.4844 55.7812 14.4844H49.2187C48.7836 14.4844 48.3663 14.6539 48.0587 14.9558C47.751 15.2576 47.5781 15.6669 47.5781 16.0938V20.9219H42.6562C42.2211 20.9219 41.8038 21.0914 41.4962 21.3933C41.1885 21.6951 41.0156 22.1044 41.0156 22.5312V28.9688C41.0156 29.3956 41.1885 29.8049 41.4962 30.1068C41.8038 30.4086 42.2211 30.5781 42.6562 30.5781H47.5781V35.4062C47.5781 35.8331 47.751 36.2424 48.0587 36.5443C48.3663 36.8461 48.7836 37.0156 49.2187 37.0156H55.7812C56.2164 37.0156 56.6337 36.8461 56.9413 36.5443C57.249 36.2424 57.4219 35.8331 57.4219 35.4062V30.5781H62.3437C62.7789 30.5781 63.1962 30.4086 63.5038 30.1068C63.8115 29.8049 63.9844 29.3956 63.9844 28.9688V22.5312C63.9844 22.1044 63.8115 21.6951 63.5038 21.3933C63.1962 21.0914 62.7789 20.9219 62.3437 20.9219ZM60.7031 27.3594H55.7812C55.3461 27.3594 54.9288 27.5289 54.6211 27.8307C54.3135 28.1326 54.1406 28.5419 54.1406 28.9688V33.7969H50.8594V28.9688C50.8594 28.5419 50.6865 28.1326 50.3788 27.8307C50.0712 27.5289 49.6539 27.3594 49.2187 27.3594H44.2969V24.1406H49.2187C49.6539 24.1406 50.0712 23.9711 50.3788 23.6692C50.6865 23.3674 50.8594 22.9581 50.8594 22.5312V17.7031H54.1406V22.5312C54.1406 22.9581 54.3135 23.3674 54.6211 23.6692C54.9288 23.9711 55.3461 24.1406 55.7812 24.1406H60.7031V27.3594Z" fill="white"/>
<path d="M97.9945 29.5481C98.0277 29.265 98.0442 28.9802 98.0438 28.6952C98.0358 27.22 97.5141 25.7917 96.5652 24.6472C95.6164 23.5027 94.2972 22.7107 92.8266 22.4025C91.163 22.0919 89.4413 22.4127 88.0098 23.3001C86.5782 24.1875 85.5437 25.5751 85.1156 27.1823L77.8969 47.557C77.7899 47.5987 77.6858 47.6471 77.5852 47.7019L63.082 56.0384C60.8627 57.3172 59.022 59.1419 57.7416 61.3321C56.4612 63.5223 55.7855 66.0024 55.7813 68.5272V83.6875C55.3461 83.6875 54.9288 83.8571 54.6212 84.1589C54.3135 84.4607 54.1406 84.87 54.1406 85.2969V98.1719C54.1406 98.5987 54.3135 99.0081 54.6212 99.3099C54.9288 99.6117 55.3461 99.7813 55.7813 99.7813H78.75C79.1851 99.7813 79.6024 99.6117 79.9101 99.3099C80.2178 99.0081 80.3906 98.5987 80.3906 98.1719V85.2969C80.3906 84.87 80.2178 84.4607 79.9101 84.1589C79.6024 83.8571 79.1851 83.6875 78.75 83.6875V80.1469C78.7531 79.4671 78.9006 78.7955 79.183 78.1748C79.4655 77.5541 79.8768 76.9979 80.3906 76.5419L91.4812 66.8695C92.6944 65.8283 93.5628 64.4552 93.975 62.9266L101.095 36.8064C101.247 36.261 101.325 35.6981 101.325 35.1327C101.319 33.9969 101.007 32.8829 100.423 31.9025C99.8381 30.9222 99.0006 30.1102 97.9945 29.5481V29.5481ZM88.2492 28.1319C88.4506 27.2996 88.9644 26.5723 89.6881 26.0951C90.4117 25.6178 91.2922 25.4257 92.1539 25.5569C92.8893 25.708 93.5495 26.102 94.0243 26.6732C94.4991 27.2444 94.7597 27.9582 94.7625 28.6952V28.7273C93.297 28.754 91.8805 29.2495 90.7285 30.1385C89.5765 31.0274 88.752 32.2612 88.3805 33.652L83.8031 47.5088C83.1101 47.1863 82.3671 46.9796 81.6047 46.8972L88.2492 28.1319ZM77.1094 96.5625H57.4219V86.9063H77.1094V96.5625ZM97.9289 35.9695L90.7922 62.1058C90.5453 63.014 90.0318 63.831 89.3156 64.4555L78.2086 74.1278C77.3491 74.8881 76.6614 75.8164 76.1895 76.853C75.7176 77.8896 75.4721 79.0116 75.4688 80.1469V83.6875H59.0625V68.5272C59.0706 66.5636 59.598 64.6358 60.5929 62.932C61.5879 61.2281 63.0165 59.8067 64.7391 58.8066L79.2258 50.4861C79.5993 50.2726 80.0121 50.1336 80.4406 50.0772C80.869 50.0207 81.3046 50.0478 81.7224 50.157C82.1401 50.2661 82.5317 50.4552 82.8747 50.7133C83.2177 50.9714 83.5054 51.2935 83.7211 51.6609C84.1472 52.4046 84.2648 53.2807 84.0492 54.1072C83.9353 54.5153 83.7404 54.8973 83.4758 55.2315C83.2111 55.5656 82.882 55.8453 82.507 56.0545L73.1063 61.3816C72.7491 61.6043 72.4936 61.9537 72.3929 62.3569C72.2922 62.76 72.3542 63.1858 72.566 63.5451C72.7778 63.9045 73.1229 64.1697 73.5293 64.2854C73.9357 64.401 74.3719 64.3582 74.7469 64.1658L84.1477 58.8388C84.8991 58.4205 85.5576 57.8591 86.0845 57.1875C86.6114 56.5158 86.996 55.7476 87.2156 54.928C87.6622 53.2813 87.4263 51.5281 86.5594 50.0516L86.4609 49.9067L91.5305 34.5694C91.7319 33.7371 92.2456 33.0098 92.9693 32.5326C93.693 32.0553 94.5735 31.8632 95.4352 31.9944C96.1705 32.1455 96.8308 32.5395 97.3056 33.1107C97.7803 33.6819 98.0409 34.3957 98.0438 35.1327C98.0493 35.4157 98.0105 35.698 97.9289 35.9695V35.9695Z" fill="white"/>
<path d="M49.2188 83.6875V68.5272C49.2145 66.0024 48.5388 63.5223 47.2584 61.3321C45.978 59.1419 44.1373 57.3172 41.918 56.0384L27.4148 47.6858C27.3164 47.6375 27.2016 47.6053 27.1031 47.557L19.9336 27.295C19.5169 25.6644 18.4825 24.2508 17.0408 23.3418C15.5992 22.4329 13.8586 22.097 12.1734 22.4025C10.7028 22.7107 9.38365 23.5027 8.43476 24.6472C7.48587 25.7917 6.96421 27.2199 6.95625 28.6951C6.95583 28.9802 6.97226 29.265 7.00547 29.5481C5.99938 30.1102 5.16191 30.9222 4.57727 31.9025C3.99263 32.8829 3.68144 33.9969 3.675 35.1326C3.67819 35.6969 3.74979 36.2588 3.88828 36.8064L11.025 62.9105C11.4328 64.4456 12.3017 65.8249 13.5188 66.8695L24.593 76.5419C25.112 76.9948 25.5278 77.5499 25.8133 78.1711C26.0988 78.7922 26.2476 79.4655 26.25 80.1469V83.6875C25.8149 83.6875 25.3976 83.857 25.0899 84.1589C24.7822 84.4607 24.6094 84.87 24.6094 85.2969V98.1719C24.6094 98.5987 24.7822 99.008 25.0899 99.3099C25.3976 99.6117 25.8149 99.7812 26.25 99.7812H49.2188C49.6539 99.7812 50.0712 99.6117 50.3789 99.3099C50.6865 99.008 50.8594 98.5987 50.8594 98.1719V85.2969C50.8594 84.87 50.6865 84.4607 50.3789 84.1589C50.0712 83.857 49.6539 83.6875 49.2188 83.6875ZM10.2375 28.6951C10.2395 27.9604 10.4978 27.2484 10.9693 26.6775C11.4409 26.1066 12.0974 25.7112 12.8297 25.5569C13.7151 25.4308 14.6163 25.6377 15.3526 26.1362C16.089 26.6347 16.606 27.3878 16.8 28.2445L23.3953 46.8972C22.6329 46.9796 21.8899 47.1863 21.1969 47.5087L16.6523 33.7325C16.2825 32.3279 15.4564 31.0797 14.299 30.1766C13.1416 29.2735 11.7159 28.7648 10.2375 28.7273V28.6951ZM26.775 74.1278L15.6844 64.4555C14.9642 63.8277 14.4503 63.0043 14.2078 62.0897L7.05469 35.9695C6.98678 35.6956 6.95371 35.4145 6.95625 35.1326C6.95828 34.3979 7.21652 33.6859 7.68807 33.115C8.15962 32.5441 8.8161 32.1487 9.54844 31.9944C10.4276 31.8649 11.3241 32.0669 12.0576 32.5595C12.7912 33.0522 13.3074 33.799 13.5023 34.6498L18.5391 49.9067L18.4406 50.0516C17.5737 51.5281 17.3378 53.2813 17.7844 54.928C18.004 55.7476 18.3886 56.5158 18.9155 57.1875C19.4424 57.8591 20.1009 58.4205 20.8523 58.8387L30.2531 64.1658C30.6281 64.3582 31.0643 64.401 31.4707 64.2854C31.8771 64.1697 32.2222 63.9045 32.434 63.5451C32.6458 63.1858 32.7078 62.76 32.6071 62.3568C32.5064 61.9537 32.2509 61.6042 31.8938 61.3816L22.493 56.0545C22.1181 55.8453 21.7889 55.5656 21.5242 55.2315C21.2596 54.8973 21.0647 54.5153 20.9508 54.1072C20.7353 53.2807 20.8528 52.4046 21.2789 51.6609C21.4933 51.2942 21.7792 50.9725 22.1203 50.7142C22.4614 50.4559 22.851 50.2661 23.2669 50.1555C23.6828 50.0449 24.1169 50.0157 24.5443 50.0697C24.9716 50.1237 25.384 50.2597 25.7578 50.47L40.2609 58.8066C41.9835 59.8067 43.4121 61.2281 44.4071 62.9319C45.4021 64.6358 45.9294 66.5636 45.9375 68.5272V83.6875H29.5313V80.1469C29.5285 79.01 29.2816 77.8864 28.8067 76.8494C28.3318 75.8123 27.6395 74.885 26.775 74.1278ZM47.5781 96.5625H27.8906V86.9062H47.5781V96.5625Z" fill="white"/>
<path d="M75.7099 8.25931C74.1869 6.76265 72.3779 5.57531 70.3865 4.76524C68.3951 3.95518 66.2604 3.53829 64.1046 3.53844C61.9488 3.53859 59.8142 3.95577 57.8229 4.76611C55.8317 5.57646 54.0228 6.76405 52.5 8.26092V8.26092C50.9773 6.76401 49.1686 5.57641 47.1774 4.76611C45.1862 3.9558 43.0516 3.53871 40.8959 3.53871C38.7401 3.53871 36.6055 3.9558 34.6143 4.76611C32.6231 5.57641 30.8144 6.76401 29.2917 8.26092C26.221 11.2796 24.4965 15.3699 24.4965 19.6344C24.4965 23.8988 26.221 27.9892 29.2917 31.0078L51.3417 52.6378C51.6494 52.9395 52.0666 53.109 52.5016 53.109C52.9367 53.109 53.3539 52.9395 53.6616 52.6378L75.7116 31.0078C78.7821 27.9887 80.5064 23.898 80.5061 19.6332C80.5058 15.3685 78.7809 11.278 75.7099 8.25931V8.25931ZM52.5 49.2243L31.6099 28.7322C29.7759 26.9306 28.5276 24.6362 28.0227 22.1388C27.5179 19.6414 27.7791 17.0533 28.7735 14.7016C29.7679 12.3498 31.4508 10.3401 33.6094 8.92644C35.7679 7.51278 38.3053 6.75864 40.9008 6.75937C42.6249 6.75356 44.3329 7.08457 45.9252 7.73307C47.5176 8.38158 48.9623 9.33461 50.1752 10.5366L51.3401 11.6792C51.6477 11.9809 52.065 12.1504 52.5 12.1504C52.935 12.1504 53.3523 11.9809 53.6599 11.6792L54.828 10.5334C56.0461 9.33639 57.4927 8.38678 59.0853 7.73886C60.6778 7.09095 62.385 6.75745 64.1091 6.75745C65.8331 6.75745 67.5403 7.09095 69.1329 7.73886C70.7254 8.38678 72.1721 9.33639 73.3901 10.5334C75.8476 12.9474 77.228 16.2195 77.228 19.6312C77.228 23.0428 75.8476 26.3149 73.3901 28.7289L52.5 49.2243Z" fill="white"/>
</svg>
